HIERARCHY
ROOT Hip
{
  OFFSET 0.0 0.0 0.0
  CHANNELS 6 Xposition Yposition Zposition Xrotation Yrotation Zrotation
  JOINT LowerSpine
  {
    OFFSET 0.0 0.061367 -0.03653
    CHANNELS 3 Xrotation Yrotation Zrotation
    JOINT MiddleSpine
    {
      OFFSET 0.0 0.056002 0.002633
      CHANNELS 3 Xrotation Yrotation Zrotation
      JOINT Chest
      {
        OFFSET 0.0 0.069296 -0.013882
        CHANNELS 3 Xrotation Yrotation Zrotation
        JOINT Neck
        {
          OFFSET 0.0 0.156156 -0.002923
          CHANNELS 3 Xrotation Yrotation Zrotation
          JOINT Head
          {
            OFFSET 0.0 0.088183 0.023986
            CHANNELS 3 Xrotation Yrotation Zrotation
            End Site
            {
              OFFSET 1e-06 0.123215 0.003678
            }
          }
        }
        JOINT LClavicle
        {
          OFFSET 0.014189 0.150698 0.046467
          CHANNELS 3 Xrotation Yrotation Zrotation
          JOINT LShoulder
          {
            OFFSET 0.082893 0.021616 -0.034976
            CHANNELS 3 Xrotation Yrotation Zrotation
            JOINT LForearm
            {
              OFFSET 0.195645 -0.000695 -0.001695
              CHANNELS 3 Xrotation Yrotation Zrotation
              JOINT LHand
              {
                OFFSET 0.163209 0.000474 -0.000977
                CHANNELS 3 Xrotation Yrotation Zrotation
                End Site
                {
                  OFFSET 0.0 0.006864 0.0
                }
              }
            }
          }
        }
        JOINT RClavicle
        {
          OFFSET -0.014189 0.150698 0.046467
          CHANNELS 3 Xrotation Yrotation Zrotation
          JOINT RShoulder
          {
            OFFSET -0.082908 0.021619 -0.034982
            CHANNELS 3 Xrotation Yrotation Zrotation
            JOINT RForearm
            {
              OFFSET -0.195645 -0.000695 -0.001695
              CHANNELS 3 Xrotation Yrotation Zrotation
              JOINT RHand
              {
                OFFSET -0.163209 0.000474 -0.000977
                CHANNELS 3 Xrotation Yrotation Zrotation
                End Site
                {
                  OFFSET 0.0 0.006864 0.0
                }
              }
            }
          }
        }
      }
    }
  }
  JOINT RThigh
  {
    OFFSET -0.072558 0.02774 -0.005953
    CHANNELS 3 Xrotation Yrotation Zrotation
    JOINT RShin
    {
      OFFSET -0.005253 -0.285537 0.0
      CHANNELS 3 Xrotation Yrotation Zrotation
      JOINT RFoot
      {
        OFFSET 0.0 -0.28038 0.0
        CHANNELS 3 Xrotation Yrotation Zrotation
        JOINT RToe
        {
          OFFSET 0.0 -0.030816 0.064441
          CHANNELS 3 Xrotation Yrotation Zrotation
          End Site
          {
            OFFSET 0.0 0.0 0.043231
          }
        }
      }
    }
  }
  JOINT LThigh
  {
    OFFSET 0.072557 0.027741 -0.005953
    CHANNELS 3 Xrotation Yrotation Zrotation
    JOINT LShin
    {
      OFFSET 0.005253 -0.285539 0.0
      CHANNELS 3 Xrotation Yrotation Zrotation
      JOINT LFoot
      {
        OFFSET 0.0 -0.28038 0.0
        CHANNELS 3 Xrotation Yrotation Zrotation
        JOINT LToe
        {
          OFFSET 0.0 -0.030816 0.064441
          CHANNELS 3 Xrotation Yrotation Zrotation
          End Site
          {
            OFFSET 0.0 0.0 0.043231
          }
        }
      }
    }
  }
}
MOTION
Frames: 6
Frame Time: 0.03333333333333333
-0.025734 0.566721 -0.071314 8.223309 1.163308 0.841013 1.528862 -0.073596 -1.341558 0.576434 1.277565 -0.771699 -1.387104 3.149447 -1.871221 -0.094273 0.205509 0.26641 0.004059 0.244277 0.009794 0.495528 0.51782 -8.590476 14.743992 -28.76816 -49.118034 11.553946 -51.008266 0.75138 0.184476 0.213695 -0.189978 -0.217127 -1.480018 11.453783 0.249626 45.670418 66.114136 5.259135 39.823608 -1.398166 0.461321 -0.578273 0.049407 -22.826296 -0.154403 -3.935222 19.786812 -3.145447 5.379755 -3.531845 0.540036 0.099385 0.342643 0.754392 0.053614 -16.673962 7.778595 6.112035 14.055766 9.950449 -6.974973 -2.838866 0.070409 -0.213167 0.003452 -0.073448 0.062445 
-0.020054 0.557191 -0.073111 1.446933 -1.618758 1.659208 2.285375 -0.126197 -0.067774 -0.208597 1.409302 0.005184 -1.599639 5.155614 -3.603669 1.427833 0.339023 0.47617 0.045 -0.257386 -0.032953 -1.172626 -1.718759 -9.00466 15.574105 -25.729979 -48.706406 12.898174 -50.717583 3.116201 0.134055 0.211545 -0.176259 -2.244832 0.814431 11.971581 3.653567 39.100151 64.076622 6.179491 40.666454 0.422876 -0.111634 -0.203994 -0.016466 -16.312792 1.054483 -2.554113 18.405043 -0.809461 2.543135 -2.741311 -0.312606 -0.521774 -0.045259 0.335961 0.107426 -5.341876 11.957202 3.72135 6.989259 8.965965 -6.792062 -3.671972 -0.168985 0.267291 0.110041 -0.192726 -0.055279 
-0.031031 0.551459 -0.077615 1.938764 -1.16381 1.250089 2.318726 -0.251346 -0.149132 -0.265998 1.139103 0.115616 -3.479792 4.443292 -4.00622 1.587987 0.372268 0.575826 0.048116 -0.276977 -0.050489 -1.360808 -1.948676 -8.616305 16.487284 -26.310778 -49.283588 13.667329 -47.535961 2.773955 0.124348 0.200182 -0.156831 -2.268352 1.220914 12.261525 3.761122 41.052948 64.722786 7.267429 41.362602 1.462506 -0.177495 -0.16433 -0.022191 -18.301483 -0.448484 -1.582929 18.957853 -1.091791 2.479069 -2.200874 -0.290771 -0.474331 -0.062619 0.311945 0.108364 -8.458412 12.723983 5.476565 9.273663 9.750832 -7.670917 -3.411659 -0.10465 0.237646 0.126327 -0.191581 -0.054341 
-0.047636 0.548899 -0.08311 4.11583 -0.189055 0.923827 2.059041 -0.314838 -0.145218 -0.082308 0.98175 -0.083269 -2.758861 3.988785 -5.359073 1.46238 0.410792 0.620924 0.047651 -0.275235 -0.055779 -1.230659 -1.774158 -8.63777 16.841404 -28.204754 -48.446926 13.548146 -44.962727 1.963907 0.112847 0.191891 -0.128832 -2.096385 1.463906 12.259914 2.847406 43.387875 64.845406 7.910352 42.043728 1.783984 -0.182726 -0.152945 -0.023034 -22.20936 0.449276 -0.485666 21.157383 -0.614741 1.936047 -2.45033 -0.253212 -0.427943 -0.064935 0.285173 0.111542 -13.122876 12.96078 7.862093 12.393891 11.155381 -8.368911 -3.353702 0.107468 0.310961 0.129981 -0.182905 -0.045402 
-0.058993 0.546977 -0.092577 7.57302 0.728755 0.483159 1.756965 -0.346308 -0.083006 0.003771 0.857918 -0.205437 -2.394524 3.588534 -6.225844 1.302804 0.444646 0.59554 0.049371 -0.295618 -0.058082 -1.075307 -1.545734 -8.797785 17.276039 -29.505606 -47.084423 13.444963 -43.445007 1.67268 0.112234 0.192527 -0.122266 -1.940212 1.500813 12.231345 2.82257 44.835644 64.561432 9.339834 41.788433 1.606833 -0.216638 -0.140868 -0.028489 -28.028654 1.009728 0.798435 24.449175 -0.516997 1.512072 -2.678653 -0.28837 -0.447919 -0.078277 0.277603 0.126741 -19.451565 12.209588 9.721876 16.525038 11.554666 -8.731286 -3.276879 0.227135 0.366435 0.139291 -0.192297 -0.054991 
-0.064233 0.54658 -0.099612 11.771451 1.253808 0.218601 1.544378 -0.358519 -0.048819 -0.053368 0.773103 -0.235763 -2.78796 3.405519 -6.521684 1.174032 0.466214 0.549124 0.05098 -0.302064 -0.056782 -0.914334 -1.304604 -8.911227 17.351391 -29.952747 -46.263367 13.101892 -43.006691 1.416112 0.114128 0.197658 -0.124785 -1.766679 1.365391 12.285608 2.872144 45.305737 64.534126 10.214842 39.670002 1.345242 -0.231198 -0.139841 -0.032374 -34.783421 1.454828 1.712926 27.777857 -0.595041 1.397119 -3.07906 -0.369536 -0.496205 -0.086482 0.295057 0.138018 -26.35413 10.789206 10.662437 20.743793 11.269923 -8.839828 -3.221246 0.217131 0.354954 0.14574 -0.204708 -0.063336 
